<svg xmlns="http://www.w3.org/2000/svg" width="192" height="192" viewBox="0 0 192 192">
<g>
<path d="M 0.00 0.00 L 192.00 0.00 L 192.00 192.00 L 0.00 192.00 ZM 56.47 151.94 C58.14,152.43 79.07,152.76 103.00,152.67 L 146.50 152.50 L 147.02 106.00 C147.44,69.20 147.83,58.93 148.93,56.76 C150.22,54.19 150.13,53.85 147.43,51.35 C145.19,49.27 143.56,48.68 140.17,48.72 C139.82,48.72 139.48,48.72 139.16,48.72 C137.70,48.72 136.56,48.71 135.69,49.19 C132.77,50.78 132.79,57.76 132.85,88.15 C132.85,90.12 132.86,92.20 132.86,94.37 C132.93,135.42 132.86,137.00 131.01,138.00 C129.76,138.66 116.75,138.93 94.29,138.76 L 59.50 138.50 L 59.17 136.19 C58.45,131.12 59.14,131.00 88.69,131.00 C103.78,131.00 116.89,131.41 117.82,131.90 C118.87,132.47 120.55,132.37 122.31,131.65 L 125.12 130.50 L 125.03 85.51 C124.96,51.39 124.65,40.27 123.72,39.51 C122.93,38.85 110.34,38.68 87.77,39.00 L 53.04 39.50 L 49.83 42.71 C47.95,44.59 46.43,47.28 46.16,49.21 C45.04,57.17 45.03,135.63 46.14,140.00 C47.48,145.26 52.18,150.69 56.47,151.94 ZM 75.25 113.75 C73.28,117.51 70.29,118.03 69.49,114.75 C69.19,113.51 69.07,99.22 69.22,83.00 L 69.50 53.50 L 72.00 53.24 L 72.06 53.23 C73.35,53.10 74.32,53.00 75.05,53.37 C77.27,54.51 77.24,60.03 77.12,82.31 L 77.11 82.64 C76.98,106.78 76.73,110.93 75.25,113.75 Z" fill="rgb(35,204,221)"/>
<path d="M 79.00 51.00 L 79.00 118.00 L 68.00 118.00 L 68.00 51.00 ZM 147.02 106.00 L 146.50 152.50 L 146.76 101.75 L 147.02 51.00 L 135.00 51.00 L 135.00 141.00 L 98.00 141.00 C62.33,141.00 60.93,140.93 59.00,139.00 C56.59,136.59 56.50,135.16 58.56,132.22 C60.11,130.00 60.18,130.00 92.06,130.00 L 124.00 130.00 L 124.00 40.13 C124.71,42.94 124.97,55.08 125.03,85.51 L 125.12 130.50 L 122.31 131.65 C120.55,132.37 118.87,132.47 117.82,131.90 C116.89,131.41 103.78,131.00 88.69,131.00 C59.14,131.00 58.45,131.12 59.17,136.19 L 59.50 138.50 L 94.29 138.76 C116.75,138.93 129.76,138.66 131.01,138.00 C132.86,137.00 132.93,135.42 132.86,94.37 C132.86,92.20 132.85,90.12 132.85,88.15 C132.79,57.76 132.77,50.78 135.69,49.19 C136.56,48.71 137.70,48.72 139.16,48.72 C139.48,48.72 139.82,48.72 140.17,48.72 C143.56,48.68 145.19,49.27 147.43,51.35 C150.13,53.85 150.22,54.19 148.93,56.76 C147.83,58.93 147.44,69.20 147.02,106.00 ZM 75.25 113.75 C76.73,110.93 76.98,106.78 77.11,82.64 L 77.12 82.31 C77.24,60.03 77.27,54.51 75.05,53.37 C74.32,53.00 73.35,53.10 72.06,53.23 L 72.00 53.24 L 69.50 53.50 L 69.22 83.00 C69.07,99.22 69.19,113.51 69.49,114.75 C70.29,118.03 73.28,117.51 75.25,113.75 ZM 123.93 39.90 L 56.42 40.50 L 52.32 43.75 C48.25,46.97 46.49,48.40 45.72,57.46 C45.84,53.37 45.99,50.44 46.16,49.21 C46.43,47.28 47.95,44.59 49.83,42.71 L 53.04 39.50 L 87.77 39.00 C110.34,38.68 122.93,38.85 123.72,39.51 C123.80,39.57 123.87,39.70 123.93,39.90 ZM 56.47 151.94 C54.17,151.27 51.75,149.40 49.79,146.99 C51.78,149.38 54.24,151.29 56.47,151.94 Z" fill="rgb(52,199,213)"/>
<path d="M 56.47 151.94 C52.39,150.75 47.58,145.38 46.22,140.50 C45.49,137.86 45.11,122.58 45.12,95.60 C45.14,49.53 45.15,49.42 52.32,43.75 L 56.42 40.50 L 90.21 40.20 L 124.00 39.90 L 124.00 84.95 L 124.00 130.00 L 92.06 130.00 C60.18,130.00 60.11,130.00 58.56,132.22 C56.50,135.16 56.59,136.59 59.00,139.00 C60.93,140.93 62.33,141.00 98.00,141.00 L 135.00 141.00 L 135.00 96.00 L 135.00 51.00 L 141.01 51.00 L 147.02 51.00 L 146.76 101.75 L 146.50 152.50 L 103.00 152.67 C79.07,152.76 58.14,152.43 56.47,151.94 ZM 79.00 84.50 L 79.00 51.00 L 73.50 51.00 L 68.00 51.00 L 68.00 84.50 L 68.00 118.00 L 73.50 118.00 L 79.00 118.00 L 79.00 84.50 Z" fill="rgb(250,254,254)"/>
</g>
</svg>